MSD_FD_states
version=1
nRows=32
nColumns=9
inDegrees=yes

# SIMM Motion File Header:
name MSD_FD_states
datacolumns 9
datarows 32
otherdata 1
range 0.00000000 0.00373337
endheader
time	/jointset/PelvisToPlatform/Block_rotation/value	/jointset/PelvisToPlatform/Block_rotation/speed	/jointset/PelvisToPlatform/Block_tx/value	/jointset/PelvisToPlatform/Block_tx/speed	/jointset/PelvisToPlatform/Block_ty/value	/jointset/PelvisToPlatform/Block_ty/speed	/forceset/muscle1/activation	/forceset/muscle1/normalized_tendon_force
      0.00000000	      0.00000000	      0.00000000	     -0.15000000	      0.00000000	      0.20000000	      0.00000000	      0.50000000	      0.50000000
      0.00000061	      0.00000000	      0.00499906	     -0.15000000	     -0.00000464	      0.20000000	      0.00000000	      0.50000682	      0.47861418
      0.00000121	      0.00000001	      0.00981169	     -0.15000000	     -0.00000911	      0.20000000	      0.00000000	      0.50001365	      0.46294558
      0.00000201	      0.00000002	      0.01595675	     -0.15000000	     -0.00001482	      0.20000000	      0.00000000	      0.50002266	      0.44710590
      0.00000305	      0.00000004	      0.02369683	     -0.15000000	     -0.00002200	      0.20000000	      0.00000000	      0.50003443	      0.43132127
      0.00000442	      0.00000008	      0.03344911	     -0.15000000	     -0.00003106	      0.20000000	      0.00000000	      0.50004980	      0.41557828
      0.00000620	      0.00000015	      0.04572092	     -0.15000000	     -0.00004245	      0.20000000	      0.00000000	      0.50006989	      0.39989491
      0.00000853	      0.00000027	      0.06114636	     -0.15000000	     -0.00005678	      0.20000000	     -0.00000000	      0.50009615	      0.38429073
      0.00001158	      0.00000049	      0.08051533	     -0.15000000	     -0.00007476	      0.20000000	      0.00000000	      0.50013047	      0.36879218
      0.00001557	      0.00000086	      0.10481310	     -0.15000000	     -0.00009732	      0.20000000	     -0.00000000	      0.50017537	      0.35343453
      0.00002078	      0.00000148	      0.13527168	     -0.15000000	     -0.00012560	      0.20000000	     -0.00000000	      0.50023413	      0.33826533
      0.00002762	      0.00000254	      0.17343938	     -0.15000000	     -0.00016104	      0.20000000	     -0.00000000	      0.50031109	      0.32334899
      0.00003659	      0.00000431	      0.22127997	     -0.15000000	     -0.00020546	      0.20000000	     -0.00000000	      0.50041203	      0.30877304
      0.00004838	      0.00000728	      0.28132290	     -0.15000001	     -0.00026121	      0.20000000	     -0.00000000	      0.50054467	      0.29465618
      0.00006394	      0.00001225	      0.35690997	     -0.15000001	     -0.00033140	      0.20000000	     -0.00000000	      0.50071957	      0.28115790
      0.00008458	      0.00002061	      0.45263912	     -0.15000002	     -0.00042028	      0.20000000	     -0.00000000	      0.50095145	      0.26848833
      0.00011225	      0.00003484	      0.57525913	     -0.15000003	     -0.00053414	      0.20000000	     -0.00000000	      0.50126186	      0.25691441
      0.00015003	      0.00005963	      0.73578912	     -0.15000006	     -0.00068319	      0.20000000	     -0.00000000	      0.50168519	      0.24675407
      0.00020392	      0.00010525	      0.95622710	     -0.15000010	     -0.00088787	      0.20000000	     -0.00000000	      0.50228758	      0.23833819
      0.00029462	      0.00020837	      1.31569065	     -0.15000019	     -0.00122165	      0.20000000	     -0.00000000	      0.50329823	      0.23180404
      0.00038533	      0.00034375	      1.66879355	     -0.15000032	     -0.00154951	      0.20000000	     -0.00000000	      0.50430466	      0.22938908
      0.00050738	      0.00057624	      2.14068804	     -0.15000054	     -0.00198769	      0.20000000	     -0.00000000	      0.50565226	      0.22854080
      0.00062943	      0.00086628	      2.61200713	     -0.15000080	     -0.00242535	      0.20000000	     -0.00000000	      0.50699232	      0.22866165
      0.00081484	      0.00141704	      3.32930615	     -0.15000132	     -0.00309144	      0.20000000	     -0.00000000	      0.50901377	      0.22935086
      0.00100026	      0.00210102	      4.04898724	     -0.15000195	     -0.00375977	      0.20000000	     -0.00000000	      0.51101814	      0.23017997
      0.00134698	      0.00373913	      5.40169154	     -0.15000347	     -0.00501610	      0.20000000	     -0.00000000	      0.51472114	      0.23175683
      0.00181117	      0.00666947	      7.22651826	     -0.15000619	     -0.00671123	      0.20000000	     -0.00000000	      0.51958831	      0.23385142
      0.00219561	      0.00974006	      8.74956173	     -0.15000905	     -0.00812641	      0.20000000	     -0.00000000	      0.52354281	      0.23551883
      0.00258005	      0.01339814	     10.28274993	     -0.15001244	     -0.00955143	      0.20000000	     -0.00000000	      0.52742963	      0.23719333
      0.00296449	      0.01764756	     11.82589748	     -0.15001639	     -0.01098621	      0.20000000	     -0.00000000	      0.53125026	      0.23879969
      0.00334893	      0.02249207	     13.37854931	     -0.15002089	     -0.01243039	      0.20000000	     -0.00000000	      0.53500611	      0.24040919
      0.00373337	      0.02793528	     14.94050237	     -0.15002595	     -0.01388389	      0.20000000	     -0.00000000	      0.53869856	      0.24195786
